# xmcd CD database file generated by libcdaudio 0.99.6
# 
# Track frame offsets:
#       183
#       27933
#       61458
#       84230
#       100673
#       119508
#       134770
#       162470
#       186775
#       202258
#       225355
# 
# Disc length: 3221 seconds
# 
# Revision: 1
# Processed by: cddbd v1.4PL0 Copyright (c) Steve Scherf et al.
# Submitted via: libcdaudio 0.99.6
# 
DISCID=960c930b
DTITLE=Phil Collins - Behind the lines
DYEAR=1900
DGENRE=
TTITLE0=I don't care anymore
TTITLE1=I cannot believe it's true
TTITLE2=Thru these walls
TTITLE3=I missed again
TTITLE4=Behind the lines
TTITLE5=The roof is leaking
TTITLE6=The west side
TTITLE7=In the air tonight
TTITLE8=You can't hurry love
TTITLE9=It don't matter to me
TTITLE10=People get ready
EXTD=
EXTT0=
EXTT1=
EXTT2=
EXTT3=
EXTT4=
EXTT5=
EXTT6=
EXTT7=
EXTT8=
EXTT9=
EXTT10=
PLAYORDER=
